<mxfile host="app.diagrams.net" agent="Mozilla/5.0 (Windows NT 10.0; Win64; x64) AppleWebKit/537.36 (KHTML, like Gecko) Chrome/126.0.0.0 Safari/537.36" version="27.0.1">
  <diagram name="第 1 页" id="8cUD26Yetb1TmtzEOfsv">
    <mxGraphModel dx="938" dy="487" grid="1" gridSize="10" guides="1" tooltips="1" connect="1" arrows="1" fold="1" page="1" pageScale="1" pageWidth="827" pageHeight="1169" math="0" shadow="0">
      <root>
        <mxCell id="0" />
        <mxCell id="1" parent="0" />
        <mxCell id="WrvPejiIo_XA222zAKY5-2" value="文搜图逻辑思维导图" style="text;html=1;align=center;verticalAlign=middle;resizable=0;points=[];autosize=1;strokeColor=none;fillColor=none;" vertex="1" parent="1">
          <mxGeometry x="330" width="130" height="30" as="geometry" />
        </mxCell>
        <mxCell id="WrvPejiIo_XA222zAKY5-10" style="edgeStyle=orthogonalEdgeStyle;rounded=0;orthogonalLoop=1;jettySize=auto;html=1;entryX=0;entryY=0.5;entryDx=0;entryDy=0;" edge="1" parent="1" source="WrvPejiIo_XA222zAKY5-3" target="WrvPejiIo_XA222zAKY5-9">
          <mxGeometry relative="1" as="geometry" />
        </mxCell>
        <mxCell id="WrvPejiIo_XA222zAKY5-3" value="usr_input" style="text;html=1;align=center;verticalAlign=middle;resizable=0;points=[];autosize=1;strokeColor=none;fillColor=none;" vertex="1" parent="1">
          <mxGeometry x="10" y="310" width="70" height="30" as="geometry" />
        </mxCell>
        <mxCell id="WrvPejiIo_XA222zAKY5-13" value="" style="edgeStyle=orthogonalEdgeStyle;rounded=0;orthogonalLoop=1;jettySize=auto;html=1;entryX=0;entryY=0.5;entryDx=0;entryDy=0;" edge="1" parent="1" source="WrvPejiIo_XA222zAKY5-9" target="WrvPejiIo_XA222zAKY5-15">
          <mxGeometry relative="1" as="geometry">
            <mxPoint x="165" y="225" as="targetPoint" />
          </mxGeometry>
        </mxCell>
        <mxCell id="WrvPejiIo_XA222zAKY5-14" value="是" style="edgeLabel;html=1;align=center;verticalAlign=middle;resizable=0;points=[];" vertex="1" connectable="0" parent="WrvPejiIo_XA222zAKY5-13">
          <mxGeometry x="-0.1454" relative="1" as="geometry">
            <mxPoint y="48" as="offset" />
          </mxGeometry>
        </mxCell>
        <mxCell id="WrvPejiIo_XA222zAKY5-17" style="edgeStyle=orthogonalEdgeStyle;rounded=0;orthogonalLoop=1;jettySize=auto;html=1;exitX=0.5;exitY=0;exitDx=0;exitDy=0;entryX=0;entryY=0.5;entryDx=0;entryDy=0;" edge="1" parent="1" source="WrvPejiIo_XA222zAKY5-9" target="WrvPejiIo_XA222zAKY5-16">
          <mxGeometry relative="1" as="geometry" />
        </mxCell>
        <mxCell id="WrvPejiIo_XA222zAKY5-26" style="edgeStyle=orthogonalEdgeStyle;rounded=0;orthogonalLoop=1;jettySize=auto;html=1;exitX=0.5;exitY=1;exitDx=0;exitDy=0;" edge="1" parent="1" source="WrvPejiIo_XA222zAKY5-9">
          <mxGeometry relative="1" as="geometry">
            <mxPoint x="164.8571428571429" y="430" as="targetPoint" />
          </mxGeometry>
        </mxCell>
        <mxCell id="WrvPejiIo_XA222zAKY5-27" value="否" style="edgeLabel;html=1;align=center;verticalAlign=middle;resizable=0;points=[];" vertex="1" connectable="0" parent="WrvPejiIo_XA222zAKY5-26">
          <mxGeometry x="-0.1387" relative="1" as="geometry">
            <mxPoint as="offset" />
          </mxGeometry>
        </mxCell>
        <mxCell id="WrvPejiIo_XA222zAKY5-9" value="是否提取tags" style="rhombus;whiteSpace=wrap;html=1;" vertex="1" parent="1">
          <mxGeometry x="110" y="300" width="110" height="50" as="geometry" />
        </mxCell>
        <mxCell id="WrvPejiIo_XA222zAKY5-19" value="" style="edgeStyle=orthogonalEdgeStyle;rounded=0;orthogonalLoop=1;jettySize=auto;html=1;" edge="1" parent="1" source="WrvPejiIo_XA222zAKY5-15" target="WrvPejiIo_XA222zAKY5-18">
          <mxGeometry relative="1" as="geometry" />
        </mxCell>
        <mxCell id="WrvPejiIo_XA222zAKY5-15" value="文本向量化" style="rounded=0;whiteSpace=wrap;html=1;" vertex="1" parent="1">
          <mxGeometry x="220" y="120" width="120" height="60" as="geometry" />
        </mxCell>
        <mxCell id="WrvPejiIo_XA222zAKY5-22" value="" style="edgeStyle=orthogonalEdgeStyle;rounded=0;orthogonalLoop=1;jettySize=auto;html=1;" edge="1" parent="1" source="WrvPejiIo_XA222zAKY5-16" target="WrvPejiIo_XA222zAKY5-21">
          <mxGeometry relative="1" as="geometry" />
        </mxCell>
        <mxCell id="WrvPejiIo_XA222zAKY5-16" value="标签扩散" style="rounded=0;whiteSpace=wrap;html=1;" vertex="1" parent="1">
          <mxGeometry x="220" y="200" width="120" height="60" as="geometry" />
        </mxCell>
        <mxCell id="WrvPejiIo_XA222zAKY5-71" style="rounded=0;orthogonalLoop=1;jettySize=auto;html=1;exitX=1;exitY=0.5;exitDx=0;exitDy=0;entryX=0;entryY=0.5;entryDx=0;entryDy=0;" edge="1" parent="1" source="WrvPejiIo_XA222zAKY5-18" target="WrvPejiIo_XA222zAKY5-61">
          <mxGeometry relative="1" as="geometry">
            <mxPoint x="620" y="120" as="targetPoint" />
          </mxGeometry>
        </mxCell>
        <mxCell id="WrvPejiIo_XA222zAKY5-18" value="向量库获取&lt;br&gt;图像集合A" style="whiteSpace=wrap;html=1;rounded=0;" vertex="1" parent="1">
          <mxGeometry x="420" y="120" width="120" height="60" as="geometry" />
        </mxCell>
        <mxCell id="WrvPejiIo_XA222zAKY5-21" value="数据库标签搜索&lt;br&gt;图像集合B" style="whiteSpace=wrap;html=1;rounded=0;" vertex="1" parent="1">
          <mxGeometry x="420" y="200" width="120" height="60" as="geometry" />
        </mxCell>
        <mxCell id="WrvPejiIo_XA222zAKY5-46" value="A∩B" style="ellipse;whiteSpace=wrap;html=1;flipH=1;flipV=1;" vertex="1" parent="1">
          <mxGeometry x="650" y="60" width="120" height="60" as="geometry" />
        </mxCell>
        <mxCell id="WrvPejiIo_XA222zAKY5-61" value="A" style="ellipse;whiteSpace=wrap;html=1;flipH=1;flipV=1;" vertex="1" parent="1">
          <mxGeometry x="650" y="130" width="120" height="60" as="geometry" />
        </mxCell>
        <mxCell id="WrvPejiIo_XA222zAKY5-62" value="B" style="ellipse;whiteSpace=wrap;html=1;flipH=1;flipV=1;" vertex="1" parent="1">
          <mxGeometry x="650" y="200" width="120" height="60" as="geometry" />
        </mxCell>
        <mxCell id="WrvPejiIo_XA222zAKY5-63" value="None" style="ellipse;whiteSpace=wrap;html=1;flipH=1;flipV=1;" vertex="1" parent="1">
          <mxGeometry x="650" y="270" width="120" height="60" as="geometry" />
        </mxCell>
        <mxCell id="WrvPejiIo_XA222zAKY5-66" value="" style="edgeStyle=orthogonalEdgeStyle;rounded=0;orthogonalLoop=1;jettySize=auto;html=1;" edge="1" parent="1" source="WrvPejiIo_XA222zAKY5-64" target="WrvPejiIo_XA222zAKY5-65">
          <mxGeometry relative="1" as="geometry" />
        </mxCell>
        <mxCell id="WrvPejiIo_XA222zAKY5-64" value="是否包含时间、地点、大小" style="rhombus;whiteSpace=wrap;html=1;" vertex="1" parent="1">
          <mxGeometry x="60" y="430" width="210" height="60" as="geometry" />
        </mxCell>
        <mxCell id="WrvPejiIo_XA222zAKY5-74" value="" style="edgeStyle=orthogonalEdgeStyle;rounded=0;orthogonalLoop=1;jettySize=auto;html=1;" edge="1" parent="1" source="WrvPejiIo_XA222zAKY5-65" target="WrvPejiIo_XA222zAKY5-73">
          <mxGeometry relative="1" as="geometry" />
        </mxCell>
        <mxCell id="WrvPejiIo_XA222zAKY5-65" value="数据库过滤检索&lt;br&gt;图像集合C" style="whiteSpace=wrap;html=1;" vertex="1" parent="1">
          <mxGeometry x="310" y="430" width="120" height="60" as="geometry" />
        </mxCell>
        <mxCell id="WrvPejiIo_XA222zAKY5-68" value="C" style="ellipse;whiteSpace=wrap;html=1;flipH=1;flipV=1;" vertex="1" parent="1">
          <mxGeometry x="650" y="460" width="120" height="60" as="geometry" />
        </mxCell>
        <mxCell id="WrvPejiIo_XA222zAKY5-70" value="A" style="ellipse;whiteSpace=wrap;html=1;flipH=1;flipV=1;" vertex="1" parent="1">
          <mxGeometry x="650" y="390" width="120" height="60" as="geometry" />
        </mxCell>
        <mxCell id="WrvPejiIo_XA222zAKY5-77" style="rounded=0;orthogonalLoop=1;jettySize=auto;html=1;exitX=1;exitY=0.5;exitDx=0;exitDy=0;entryX=0;entryY=0.5;entryDx=0;entryDy=0;" edge="1" parent="1" source="WrvPejiIo_XA222zAKY5-73" target="WrvPejiIo_XA222zAKY5-68">
          <mxGeometry relative="1" as="geometry" />
        </mxCell>
        <mxCell id="WrvPejiIo_XA222zAKY5-73" value="C ≠ None" style="rhombus;whiteSpace=wrap;html=1;" vertex="1" parent="1">
          <mxGeometry x="470" y="435" width="110" height="50" as="geometry" />
        </mxCell>
        <mxCell id="WrvPejiIo_XA222zAKY5-78" style="rounded=0;orthogonalLoop=1;jettySize=auto;html=1;exitX=1;exitY=0.5;exitDx=0;exitDy=0;entryX=0;entryY=0.5;entryDx=0;entryDy=0;" edge="1" parent="1" source="WrvPejiIo_XA222zAKY5-73" target="WrvPejiIo_XA222zAKY5-70">
          <mxGeometry relative="1" as="geometry">
            <mxPoint x="580" y="400" as="targetPoint" />
          </mxGeometry>
        </mxCell>
      </root>
    </mxGraphModel>
  </diagram>
</mxfile>
